<?xml version="1.0" encoding="utf-8"?>
<!-- Generator: Adobe Illustrator 23.0.2, SVG Export Plug-In . SVG Version: 6.00 Build 0)  -->
<svg version="1.1" id="Layer_1" xmlns="http://www.w3.org/2000/svg" xmlns:xlink="http://www.w3.org/1999/xlink" x="0px" y="0px"
	 viewBox="0 0 595.28 595.28" style="enable-background:new 0 0 595.28 595.28;" xml:space="preserve">
<style type="text/css">
	.st0{fill:#79C79E;}
	.st1{fill:#F597A9;}
	.st2{fill:#bbdaf1;}
	.st3{fill:#8A98B6;}
	.st4{fill:#F3797A;}
</style>
<path class="st2" d="M502.73,512.66c-1.04-8.42-14.59-11.01-46.58-13.96c-2.98-0.27-5.77-0.53-8.19-0.79
	c-11.65-1.28-17.9-43.59-20.57-61.66c-0.35-2.4-0.69-4.65-1.01-6.73c-2.17-13.4-4.02-25.31-5.24-36.07
	c2.91-10.8,0.21-28.88-0.88-35.17c9.3,18.44,32.29,36.72,36.13,24.69c3.55-11.11-23.56-27.27-30.62-31.26
	c19.92,6.01,50.14,1.31,43.7-9.83c-5.97-10.32-37.36-0.47-44.18,1.82c6.85-5.08,13.28-12.48,17.59-19.55
	c5.7,0.76,13.13-0.13,19.89-6.81c0,0-6.6-4.82-15-4.07c0.39-1.56,0.57-2.99,0.5-4.25c5.82-3.78,11.43-6.24,15.61-7.76
	c4.03,1.46,19.04,5.63,29.99-7.9c0,0-16.06-9.18-28.69,4.62c-2.63,0.86-6.08,2.16-9.96,4.05c4.57-3.87,9.47-10.54,8.34-20.97
	c0,0-0.21,0.06-0.55,0.18c0.54-0.74,1.07-1.58,1.56-2.53c1.98,3.72,4.71,6.6,8.03,6.6c1.69,0,3.27-0.77,4.44-2.16
	c1.9-2.26,2.05-5.45,0.47-9.53c1.48,0.35,2.89,0.54,4.15,0.54c2.56,0,4.5-0.75,5.79-2.22c1.09-1.24,1.55-2.9,1.31-4.66
	c-0.44-3.24-3.14-5.65-8.04-7.22c2.84-2.17,5.02-4.76,5.39-7.41c0.33-2.39-0.76-4.57-2.93-5.82c-1-0.58-2.13-0.87-3.35-0.87
	c-2.27,0-4.76,1.12-7.21,2.79c0.04-3.25-0.49-6.24-1.76-8.21c-1.15-1.79-2.94-2.81-4.9-2.81h0c-0.81,0-1.62,0.17-2.43,0.51
	c-3.16,1.34-4.77,4.88-4.85,10.56c-2.74-1.83-5.61-3.05-8.04-3.05c-2.3,0-4.17,1.07-5.19,2.85c-0.35-31.77-6.76-61.2-12.41-81.11
	c-10.72-38.84-26.14-69.67-32.72-82.83c-1.01-2.02-1.97-3.93-2.41-4.91c-0.04-0.19-0.08-0.37-0.14-0.55
	c-1.42-4.58-7.06-6.54-18.85-6.54c-9.69,0-22.27,1.41-35.41,3.98c-12.69,2.48-24.58,5.78-33.47,9.29
	c-7.54,2.98-12.16,5.74-14.35,8.65c-1.23-2.24-3.86-4.3-8.09-6.34c2.13-10.28,10.85-18.2,21.44-19.19c1.57-0.15,2.79-1.45,2.83-3.03
	l0.01-0.28c0.02-1.63-1.21-3.01-2.84-3.16c-11.76-1.09-20.96-10.44-21.87-22.22c-0.13-1.69-1.64-2.97-3.36-2.88
	c-1.56,0.09-2.81,1.32-2.93,2.88c-0.91,11.73-10.06,21.07-21.75,22.21c-1.62,0.16-2.84,1.53-2.82,3.15l0.01,0.31
	c0.04,1.57,1.25,2.87,2.82,3.02c9.38,0.92,17.26,7.31,20.38,15.93c-8.94-3.11-20.64-5.89-33.11-7.87
	c-11.32-1.79-22.53-2.78-31.56-2.78c-14.44,0-21.2,2.17-22.58,7.27c-0.13,0.48-0.19,0.97-0.2,1.46c-0.47,1.07-1.15,2.57-1.87,4.13
	c-5.77,12.64-18.84,41.29-28.13,77.39c-2.7-10.16-8.42-19.78-8.42-19.78c-13.75,22.5-4.33,45.52,0.98,55.28
	c-1.4,8.96-2.55,18.65-3.2,28.8c-0.23-0.34-0.46-0.68-0.68-1.02c-1.6-25.45-22.18-35.63-22.18-35.63
	c-1.78,24.32,13.86,35.04,19.94,38.27c0.83,1.24,1.72,2.52,2.63,3.78c-0.28,6.33-0.36,12.81-0.17,19.38
	c-1.11-2.73-1.86-4.45-1.98-4.71c-0.38-0.84-1.36-1.23-2.21-0.86c-0.85,0.37-1.23,1.36-0.86,2.21c0.06,0.13,2.61,5.97,5.61,14.18
	c0.11,1.47,0.23,2.94,0.37,4.41c-12.92-19.02-31.34-24.88-31.34-24.88c5.22,27.78,23.95,40.69,34.41,45.86
	c1.2,5.99,2.7,11.94,4.54,17.83c-0.31,0.08-0.61,0.15-0.91,0.27c-1.05,0.43-2.11,1.26-2.86,2.49c-0.34-0.05-0.67-0.08-0.96-0.08
	c-1.72,0-3.29,0.72-4.42,2.03c-1.05,1.22-2.19,3.5-1.6,7.42c0.19,1.24,0.67,2.96,2.22,5.6c-1.6-0.52-2.97-0.83-4.19-0.98
	c-1.29-1.07-2.54-2.19-3.76-3.36c1.83-3.14,9.19-17.74-2.74-31.13c0,0-9.94,12.24-2.33,25.68c-2.5-3-4.81-6.26-6.91-9.79
	c-4-6.74-6.47-13.21-7.92-17.97c1.78-4.25,7.08-20.08-6.82-32.56c0,0-10.72,16.71,3.37,31c0.78,2.87,1.98,6.63,3.8,10.9
	c-3.9-5.11-10.78-10.73-22.02-10.09c0,0,4.43,20.05,25.86,17.95c0.39,0.71,0.79,1.42,1.21,2.14c3.29,5.56,7.95,11.78,14.31,17.49
	c-0.19,0.06-0.38,0.12-0.56,0.2c-0.8-0.3-1.66-0.58-2.56-0.83c-5.8-2.74-10.61-1.5-13.69,0.11c-1.09,0.33-2.19,0.75-3.31,1.27
	c2.21-9.73-9.31-18.27-9.31-18.27c-9.17,14.27-2.97,21.26-2.97,21.26c-9.76-6.27-18-1.89-18-1.89c3.5,13.01,14.9,13.04,14.9,13.04
	c-8.96,8.29-6.5,15.07-6.5,15.07c12.88,1.82,16.37-10.23,16.37-10.23c1.85,9.17,15.17,10.23,15.17,10.23
	c4.53-15.21-5.86-17.86-5.86-17.86c2.56,0.26,4.85-0.57,6.82-1.9c0.66,0.06,1.33,0.09,2.03,0.08c-0.63,2.51,0.4,5.34,2.93,7.89
	c0.63,0.63,1.98,1.99,6.13,3.6c-3.26,1.05-9.72,3.4-9.1,9.18c0.12,1.13,0.62,2.38,1.6,3.44c-0.66,1.45-0.6,2.72-0.53,3.3
	c0.43,3.18,3.27,5.42,7.58,6c0.44,0.06,0.91,0.09,1.39,0.09c0.98,0,2.09-0.13,3.33-0.38c-1.96,2.97-3.89,7.26-0.85,10.79
	c0.85,0.98,1.99,1.64,3.27,1.92c0.14,0.81,0.41,1.45,0.67,1.91c1.07,1.93,3.07,3.04,5.49,3.04c1.55,0,3.21-0.45,4.95-1.34
	c0.98-0.5,2.25-1.34,3.92-3.14c0.07,3.6,0.89,8.45,5.54,9.6c0.46,0.11,0.93,0.17,1.41,0.17c0.87,0,1.65-0.18,2.36-0.48
	c1.24,1.23,2.76,1.74,4.14,1.74c0.37,0,0.73-0.04,1.1-0.11c-0.75,11.89-2.33,25.26-4.24,40.55c-0.18,1.52-0.37,3.16-0.57,4.88
	c-1.37,11.82-3.25,28-6.63,41.28c-4.71,18.48-9.87,21.9-12.5,22.28c-1.77,0.25-3.71,0.51-5.78,0.79
	c-32.92,4.42-47.64,7.9-47.86,16.76c-0.5,11.96,17.19,27.73,68.32,36.1c12.2,2,22.89,2.88,32.09,2.88
	c26.91,0,41.09-7.51,43.05-16.47c1.91-8.26-9.93-15.34-39-29.08c-2.7-1.28-5.22-2.47-7.41-3.54c-5.68-2.8-5.76-16.33-4.07-30.99
	c10.87,6.73,33.01,18.81,62.22,26.27c8.38,2.14,17.72,3.96,27.78,5.08c1.8,3.82,5.67,6.46,10.17,6.46c4.02,0,7.54-2.12,9.53-5.29
	c0.48,0,0.95,0.03,1.44,0.03c30.55,0,65.79-7.52,101.34-30.99c0.05,0.44,0.1,0.89,0.15,1.33c1.91,18.97-1.77,23.95-4.11,25.21
	c-1.58,0.84-3.31,1.75-5.15,2.72c-29.41,15.43-42.06,23.75-39.23,32.15c2.54,7.97,14.06,14.65,38.15,14.65
	c10.37,0,23.08-1.24,38.4-4.14C484.46,542.14,504.38,524.85,502.73,512.66z M119.65,338.2c-1.37,1.97-4.07,2.46-6.04,1.09
	c-1.98-1.36-2.46-4.07-1.1-6.04c1.37-1.97,4.07-2.46,6.04-1.09C120.53,333.52,121.02,336.23,119.65,338.2z M416.92,355.35
	c-3.32,0-6.01-2.69-6.01-6.01c0-3.32,2.69-6.01,6.01-6.01c3.32,0,6.01,2.69,6.01,6.01C422.94,352.65,420.24,355.35,416.92,355.35z
	 M445.45,255.03c0.74,1.41,1.97,2.78,3.7,4.13c-1.39,0.46-2.71,1.04-3.87,1.73C445.37,258.93,445.42,256.98,445.45,255.03z
	 M445,266.36c0.87-2.73,7.92-5.07,14.18-5.07c0.64,0,1.28,0.03,1.9,0.08c-3.91-1.6-13.36-5.92-12.66-10.04
	c0.21-1.27,1.04-1.81,2.22-1.81c3.27,0,9.3,4.16,12.81,8.87c-0.7-3.66-2.5-14.97,1.54-16.69c0.34-0.15,0.67-0.22,0.96-0.21
	c3.74,0,3.81,10.9,0.7,17.8c1.74-1.96,8.8-9.58,13.16-9.58c0.53,0,1.03,0.11,1.47,0.37c4.3,2.49-4.69,9.79-12.55,11.79
	c2.82,0.19,15.67,1.29,16.3,5.92c0.25,1.84-1.17,2.62-3.39,2.62c-3.8,0-9.93-2.31-13.93-5.57c1.96,2.5,9.4,12.4,6.45,15.9
	c-0.48,0.57-1.01,0.83-1.57,0.83c-3.19,0-7.33-8.3-7.86-15.16c-0.73,3.31-3.63,14.94-8.12,14.94c-0.01,0-0.02,0-0.02,0
	c-5-0.05-0.67-11.01,5.26-16.58c-2.49,1.35-9.07,4.65-13.3,4.65c-1.31,0-2.4-0.32-3.07-1.11c-0.33-0.39-0.5-0.78-0.55-1.17
	C444.96,266.88,444.99,266.62,445,266.36z M442.5,287.55c4.16-4.98,4.96-10.92,5.01-14.44c0.34,0.03,0.68,0.05,1.06,0.05
	c1.08,0,2.25-0.16,3.45-0.42c-1.28,3.14-1.81,6.28-0.87,8.69c0.81,2.09,2.6,3.4,4.84,3.61c-4.7,3.59-9.54,10.04-7.9,20.96
	c-0.17,0.1-0.33,0.21-0.5,0.32c-0.74-1.38-2.06-2.3-4.09-2.58c-1.64-0.22-3.27,0.2-4.88,1.07
	C440.22,299.11,441.5,293.34,442.5,287.55z M345.19,85.24c12.43-2.43,24.72-3.82,33.74-3.82c3.79,0,6.35,0.24,8.05,0.52
	c-5.38,3.13-18.71,8.23-40.02,12.39c-12.92,2.52-25.49,3.97-34.48,3.97c-3.34,0-5.66-0.2-7.25-0.43
	C310.64,94.65,324.13,89.35,345.19,85.24z M302.86,106.35c3,0.57,6.41,0.71,9.62,0.71c2.56,0,5.35-0.11,8.31-0.31
	c-1.15,10.57-8.99,19.07-19.29,21.11C301.89,118.77,302.46,111.41,302.86,106.35z M324.03,117.7c2.97,5.98,7.84,10.83,13.84,13.77
	c-5.97,2.96-10.86,7.83-13.84,13.8c-2.98-5.97-7.87-10.84-13.84-13.8C316.19,128.53,321.06,123.68,324.03,117.7z M301.25,135
	c10.24,1.94,18.31,10.45,19.54,20.95c0.18,1.53,1.55,2.7,3.09,2.76c0.04,0,0.18,0,0.22,0c0.05,0,0.11,0,0.16,0
	c1.54-0.05,2.82-1.22,3-2.76c1.32-11.27,10.48-20.21,21.78-21.26c1.57-0.15,2.79-1.45,2.83-3.03l0.01-0.28
	c0.02-1.63-1.21-3.01-2.83-3.16c-11.7-1.08-20.85-10.34-21.85-22.03c6.64-0.69,13.91-1.8,21.44-3.26c6-1.17,32.5-6.66,43.93-14.22
	c6.5,13,21.59,43.22,32.06,81.16c7.27,25.63,15.86,67.48,10.34,109.04c-1.18,1.67-2.08,3.41-2.75,5.09
	c-1.02-9.31-3.48-17.48-6.22-24.11c-0.38-0.91-0.77-1.79-1.16-2.66c17.17-18.73,1.39-37.12,1.39-37.12
	c-8.57,10.15-8.15,20.62-6.09,27.92c-2.74-4.74-5.43-8.53-7.59-11.3c-3.5-23.43-26.86-25.15-26.86-25.15
	c1.92,21.95,20.62,28.18,25.89,29.51c3.45,4.74,7.82,11.65,11.34,20.21c1.85,4.49,3.28,8.98,4.35,13.47
	c-7.28-16.71-25.88-16.01-25.88-16.01c4.18,20.76,23.18,24.15,27.44,24.65c1.05,8.5,0.69,16.99-1.08,25.42
	c-1.07-18.86-19.48-24.3-19.48-24.3c-0.13,1.05-0.2,2.07-0.24,3.07c-2.76-2.2-5.22-3.88-7.01-5.03c-0.33-5.43-4.22-9.11-5.46-7.79
	c-1.5-4.04-5.39-7.73-11.26-10.09c-7.62-3.07-11.52,0.72-12.99,2.81c-0.18-1.8-0.75-4.46-2.51-5.08c-2.72-0.95-2.79,2.5-0.53,5.93
	c0,0-5.84-5.24-7.54-2.11c-1.94,3.57,6.83,4.42,6.83,4.42s-6.35,2.33-5.09,4.52c1.16,2.05,5.09-0.35,6.9-1.61
	c-0.13,2.63,0.95,5.19,4.36,8.46c5.32,5.11,12.85,6.86,17.61,4.85c0,1.34,3.83,1.8,8.15-1.38c2.16,1.4,5.26,3.59,8.68,6.52
	c1.48,14.71,13.15,22.02,17.45,24.23c-1.87,4.81-4,9.55-6.44,14.18c-0.5,0.99-0.97,2-1.42,3c-1.55-19.73-12.59-41.96-20.81-33.66
	c-0.89,0.9-1.47,2.02-1.82,3.3c-7.34-1.88-12.72,2.88-12.72,2.88c4.49-9.53-6.8-19.62-6.8-19.62c-10.05,12.86-4.73,20.1-4.73,20.1
	c-8.8-6.86-17.08-3.41-17.08-3.41c2.21,12.77,13.12,13.82,13.12,13.82c-9.32,7.15-7.56,13.86-7.56,13.86
	c12.18,2.88,16.58-8.35,16.58-8.35c0.49,4.61,4.09,7.42,7.46,9.07c-10.07-1.38-17.71,0.5-16.25,7.06
	c-45.72-39.95-59.41-107.79-63.48-145.04C301.1,171.43,300.81,151.13,301.25,135z M389.88,332.68c4.98-13.47-4.35-16.8-4.35-16.8
	c3.91,0.77,7.39-1.23,10.02-3.65c2.58,10.32,10.46,23.11,13.9,28.39C403.55,337.07,396.52,334.31,389.88,332.68z M406.76,349.94
	c-7.36,2.33-15,6.52-21.08,11.16c-3.22-5.8-6.87-10.99-11.16-15.63C383.77,349.42,399.16,349.94,406.76,349.94z M378.82,316.55
	c-1.48,1.76-4.12,2-5.89,0.51c-1.77-1.49-2-4.12-0.52-5.89c1.49-1.77,4.12-1.99,5.89-0.51
	C380.08,312.14,380.31,314.78,378.82,316.55z M297.43,212.49c6.56,40.38,23.28,98.47,65.91,134.3c6.35,5.54,11.37,12.25,15.61,20.31
	c-5.55,5.94-7.49,11.64-2.27,14.33c2.38,1.22,5.29,0.89,8.41-0.41c3,8.03,5.65,17.08,8.26,27.27l-0.55-0.43
	c-15,19.46-35.87,31.7-57.8,39.31c-20.7-6-41.57-15.05-60.03-24.32c0.03-0.35,0.05-0.71,0.05-1.07c0-6.21-5.04-11.25-11.25-11.25
	c-2.74,0-5.25,0.98-7.2,2.61c-22.39-12.37-38.58-23.3-42.07-25.7c5.15-17.02,11.62-29.87,21.93-39.54
	C277.42,310.89,292.19,253.01,297.43,212.49z M395.77,418.02c1.28,5.3,2.57,10.87,3.91,16.75c0.35,1.5,0.73,3.09,1.14,4.78
	c0.83,3.48,1.76,7.36,2.68,11.44c-4.08,1.26-8.35,2.14-12.77,2.68c-1.65-3.58-5.26-6.06-9.45-6.06c-4.36,0-8.08,2.68-9.64,6.47
	c-7.15-0.48-14.53-1.6-22.01-3.21C368.38,442.73,383.9,431.72,395.77,418.02z M197.35,383.19c-0.33,0.13-0.66,0.21-1.01,0.21
	c-0.49,0-1.01-0.16-1.56-0.47c-3.89-2.77-7.42-9.96-8.38-12.04c0.91-0.17,1.98-0.61,3.02-1.6c2.29-2.2,2.71-5.67,1.25-10.39
	c1.26,0.41,2.48,0.68,3.63,0.84c-0.02,0.09-0.01,0.18,0.07,0.26c4.91,5.31,9.97,11.57,10.54,15.36c0.48,3.24-0.59,5.14-2.31,5.14
	c-1.09,0-2.45-0.77-3.83-2.45C198.76,378.05,199.69,382.23,197.35,383.19z M185.35,367.25c-0.54,0.01-1.34-0.51-1.35-0.5
	c-2.84-2-5.39-9.78-5.11-15.99c-1.11,3.54-4.83,14.23-9.18,14.23c-0.08,0-0.16,0-0.24-0.01c-5-0.46,0.08-10.91,6.43-16.15
	c-2.76,1.12-8.38,3.17-12.38,3.17c-1.78,0-3.24-0.41-3.99-1.48c-2.33-3.36,4.71-5.85,11.77-5.85c1.42,0,2.85,0.1,4.19,0.32
	c-3.1-2.17-12.46-9.13-10.73-13.25c0.4-0.95,1.07-1.37,1.91-1.37c3.38,0,9.52,6.74,11.8,13c-0.13-2.99-0.47-15.94,4.11-17.1
	c0.24-0.06,0.47-0.09,0.68-0.09c4.07,0,2.64,10.91-1.45,17.6c1.86-1.59,9.52-7.89,14.06-7.89c0.78,0,1.47,0.19,2.02,0.62
	c4.04,3.16-6.43,9.41-14.71,10.16c3.21,0.42,15.66,2.36,16,7c0.13,1.73-1.13,2.47-3.08,2.47c-3.71,0-9.92-2.66-13.98-6.22
	c1.82,2.94,8,13.5,4.69,16.66C186.35,367.04,185.85,367.24,185.35,367.25z M194.32,296.66c15.8-1.44,14.4-12.08,14.4-12.08
	c1.31,4.57,5.72,6.89,9.66,8.06c-4.63,5.69-8.11,14.28-4.8,26.47c-0.79,0.63-1.59,1.28-2.39,1.95c-0.07,0.06-0.14,0.13-0.21,0.19
	c0.33-1.87,0.03-3.79-1.48-5.54c-0.85-0.98-1.98-1.63-3.26-1.91c-0.14-0.81-0.41-1.45-0.67-1.91c-1.07-1.93-3.07-3.04-5.49-3.04
	c-1.55,0-3.22,0.45-4.95,1.34c-0.98,0.5-2.24,1.34-3.92,3.14c-0.07-3.6-0.89-8.45-5.54-9.6c-0.47-0.11-0.94-0.17-1.41-0.17
	c-0.87,0-1.66,0.18-2.36,0.48c-0.32-0.32-0.66-0.59-1.02-0.81c3.74-7.12,7.03-16.41,7.21-27.25c4.6,3.32,10.1,2.78,10.1,2.78
	C190.36,283.89,194.32,296.66,194.32,296.66z M201.67,273.49c0.53-2.34,2.86-3.8,5.2-3.26c2.34,0.54,3.8,2.87,3.26,5.2
	c-0.54,2.34-2.87,3.8-5.2,3.26C202.59,278.15,201.13,275.82,201.67,273.49z M200.23,333.54c-0.04-0.03-0.09-0.05-0.13-0.08
	c4.52-2.02,8.96-3.58,11.89-3.58c0.31,0,0.61,0.02,0.89,0.05c5.32,0.72,6.02,4.44,0.88,6.65c0,0,4.28,0.27,4.55,2.78
	c0.21,1.99-1.58,3.64-6.99,5.36c-3.37,1.07-7.87,1.89-12.74,2.53c-0.65-0.4-1.36-0.79-2.15-1.14c2.9-1.74,5.18-3.89,5.88-6.29
	C203.01,337.45,202.23,335.11,200.23,333.54z M221.64,342.03c4.56-1.79,9.17-4.89,13.3-10.05c0,0-7.13-4.02-16.21-3.64
	c0,0,0.01,0.01,0.01,0.01c-1.31-1.09-3.14-1.84-5.37-2.14c-0.44-0.06-0.91-0.09-1.39-0.09c-0.38,0-0.8,0.04-1.23,0.07
	c0,0,0.01,0,0.01,0c0.86-0.78,1.73-1.56,2.63-2.32c7.49-6.35,14.97-10.74,20.53-13.52c3.61,0.85,13.47,2.49,23.37-1.73
	c-7.28,11.97-16.09,23.17-26.78,32.83c-3.84,3.6-7.18,7.54-10.13,11.85c-0.39-0.53-0.82-1.06-1.33-1.58
	c-0.62-0.63-1.97-1.99-6.13-3.6C215.56,347.3,220.2,345.62,221.64,342.03z M196.84,313.53c1.24-0.64,2.34-0.93,3.24-0.93
	c2.56,0,3.47,2.37,1.27,5.88c0,0,1.8-1.09,3.44-1.09c0.71,0,1.38,0.2,1.88,0.77c1.32,1.52,0.78,3.9-2.67,8.39
	c-1.43,1.85-3.33,3.9-5.51,6.03c-0.8-0.3-1.67-0.47-2.6-0.47c-2.06,0-4.39,0.8-6.69,1.97c0.5-3.37,0.31-6.53-0.88-8.65
	c-0.16-0.29-0.34-0.55-0.53-0.79C190.78,319.59,194.09,314.94,196.84,313.53z M195.28,359.84c0.29,0.02,0.57,0.04,0.85,0.04
	c2.86,0,4.48-1.1,5.33-2.02c1.09-1.17,1.61-2.76,1.49-4.48c-0.13-1.82-1-3.43-2.57-4.83c6.65,1.36,13.52,3.3,16.03,5.83
	c0.84,0.84,1.4,1.67,1.72,2.42c0,0,0,0,0,0.01c0.8,1.91-0.01,3.38-2.11,3.64c0,0,0,0.01,0,0.01c-0.22,0.03-0.44,0.04-0.69,0.04
	c-0.66,0-1.42-0.1-2.27-0.32c0,0,2.57,2.78,1.64,4.97c-0.67,1.55-3.99,1.19-5.85,0.85c-0.81-0.21-1.67-0.48-2.67-0.84
	C203.03,364.03,199.25,362.11,195.28,359.84z M211.34,370.24c-0.9,2.17-1.77,4.4-2.59,6.71c0.01-0.66-0.03-1.36-0.14-2.15
	c-0.18-1.24-0.66-2.96-2.22-5.61C208.34,369.83,209.94,370.16,211.34,370.24z M212.04,396.33c6.28,4.22,21.18,13.94,40.54,24.65
	c-0.02,0.26-0.04,0.53-0.04,0.8c0,6.21,5.04,11.25,11.25,11.25c2.64,0,5.06-0.92,6.98-2.44c3.43,1.73,6.94,3.45,10.52,5.14
	c13.65,6.45,26.56,11.75,38.73,15.92c-16.11,4.1-32.21,6.05-46.44,6.83c-33.86,1.87-63.42-2.33-73.75-4.05
	c0.78-4.05,1.53-7.73,2.15-10.72c0.49-2.38,0.95-4.61,1.36-6.67C206.31,421.54,208.99,408.06,212.04,396.33z M270.19,65.86
	c6-2.94,10.87-7.79,13.84-13.77c2.97,5.98,7.84,10.83,13.84,13.77c-5.97,2.96-10.86,7.83-13.84,13.8
	C281.05,73.69,276.16,68.82,270.19,65.86z M214.85,83.11c8.59,0,19.31,0.95,30.19,2.67c21.19,3.35,34.86,8.17,40.38,11.19
	c-2.08,0.39-5.44,0.75-10.75,0.75c-8.66,0-19.7-0.99-31.08-2.79c-21.44-3.39-34.95-8.01-40.43-10.95
	C205.35,83.54,208.98,83.11,214.85,83.11z M159.74,238.28c2.66-9.72,6.96-16.28,10.62-20.41c38.57,1.95,65.35-29.56,65.35-29.56
	c-8.12-0.06-28.34-4.57-43.02,1.04c-10.39,3.97-18.46,16.53-22.28,23.54c-2.65,2.44-5.92,6.17-8.86,11.51
	c-0.16-1.48-0.35-3.26-0.54-5.24c1.77-17.75,4.94-33.69,7.96-45.96c9.08-38.16,23.04-68.84,29.1-82.12
	c11.81,7.06,38.17,11.54,44.17,12.49c11.82,1.87,23.34,2.9,32.44,2.9c4.67,0,9.66-0.22,13.7-1.19c1.65,14.45,5.47,48,2.31,87.22
	c-1.86,25.34-7.65,64.95-25.03,100.79c-7.93-1.27-20.93-0.76-30.49,12.48c-3.37,1.56-7.77,3.83-12.65,6.95
	c5.49-5.87,10.98-15.53,7.86-29.26c0,0-2.4,0.98-5.45,3.13c-2.01-7.07-8.49-9.61-8.49-9.61c10.95-0.36,14.94-15.58,14.94-15.58
	c-16.66-3.21-20.85,5.14-20.85,5.14c2.19-11.39-4.93-17.41-4.93-17.41c-10.78,8.09-6.57,18.69-6.57,18.69
	c-5.12-2.43-9.01-2.69-11.72-2.28c-0.45-2.66-1.09-5.4-1.98-8.19c0,0-11.63,16.77-15.15,26.84c-2.35,6.74-2.63,14.6-2.25,21.12
	c-1.96-6.23-3.51-12.55-4.72-18.9c2.86-8.21,4.67-22.16,4.96-24.46c3.47,0.35,6.6-2.11,7.04-5.58c0.44-3.53-2.05-6.76-5.58-7.21
	c-3.53-0.45-6.76,2.05-7.21,5.58c-0.31,2.41,0.78,4.66,2.61,6c-0.07,0.16-0.13,0.33-0.15,0.51c-0.02,0.12-1.14,9.33-2.99,17.41
	C159.85,265.02,159.32,251.36,159.74,238.28z M154.78,314.18c1.09,0,2.45,0.77,3.83,2.45c0,0-0.93-4.18,1.41-5.14
	c0.24-0.1,0.48-0.15,0.72-0.17c0.15-0.02,0.3-0.02,0.46-0.01c0.08,0,0.16,0.02,0.24,0.03c0.14,0.02,0.28,0.05,0.42,0.1
	c0.09,0.03,0.17,0.06,0.26,0.09c0.14,0.06,0.29,0.13,0.43,0.21c0.09,0.05,0.18,0.1,0.28,0.16c0.15,0.09,0.3,0.21,0.46,0.33
	c0.1,0.07,0.19,0.14,0.29,0.23c0.16,0.14,0.33,0.29,0.49,0.45c0.1,0.1,0.2,0.19,0.3,0.29c0.18,0.18,0.36,0.4,0.55,0.61
	c0.08,0.09,0.16,0.18,0.25,0.28c0.04,0.04,0.07,0.09,0.11,0.13c0.19,0.24,0.39,0.5,0.6,0.77c0.08,0.1,0.15,0.19,0.23,0.3
	c0.03,0.04,0.06,0.08,0.08,0.12c0.3,0.41,0.61,0.84,0.93,1.32c1.9,2.84,3.88,6.78,5.78,11.12c0.03,0.08,0.08,0.12,0.14,0.15
	c0.02,0.01,0.04,0.01,0.06,0.02c0.02,0.01,0.05,0.02,0.07,0.02c0.01,0,0.02-0.01,0.03-0.01c0.05-0.01,0.09-0.03,0.14-0.06
	c0.02-0.01,0.04-0.02,0.06-0.04c0.05-0.06,0.09-0.13,0.08-0.23c-0.1-0.84-0.18-1.68-0.26-2.53c-0.06-0.64-0.12-1.29-0.17-1.93
	c-0.01-0.07-0.01-0.13-0.01-0.2c-0.11-1.48-0.19-2.95-0.22-4.35c-0.08-3.98,0.22-7.47,1.25-9.42c1.12-2.14,2.5-3.19,3.7-3.19
	c1.47,0,2.67,1.57,2.84,4.64c0,0,1.49-3.39,3.66-3.39c0.17,0,0.34,0.02,0.51,0.06c1.95,0.48,2.88,2.74,2.64,8.4
	c-0.09,2.21-0.44,4.81-0.94,7.62c-0.92-0.63-2-0.98-3.18-0.98c0,0,0,0,0,0c-0.53,0-1.07,0.07-1.61,0.21
	c-3.19,0.81-5.3,3.8-6.32,8.93c-2.71-2.87-5.8-4.94-8.68-4.94c-2.4,0-4.41,1.37-5.37,3.67c-0.27,0.65-0.41,1.33-0.46,2.02
	c-4.15-4.71-7.91-9.74-8.39-12.99C151.99,316.08,153.06,314.18,154.78,314.18z M140.97,340.29c-3.19-3.21-2.47-6.12,1.09-6.12
	c0.66,0,1.42,0.1,2.27,0.32c0,0-3.23-2.83-1.92-4.98c0.53-0.87,1.42-1.35,2.87-1.36c0.19,0,0.4,0.02,0.6,0.04
	c-0.19-0.01-0.39-0.04-0.56-0.04c1.4,0,3.3,0.43,5.9,1.37c2.83,1.02,6.19,2.69,9.75,4.69c0.45,2.22,1.9,4.63,4.38,7.22
	c-4.78,0.88-7.67,2.76-8.97,4.57C149.93,344.64,143.4,342.74,140.97,340.29z M160.54,381.15c-1.24,0.64-2.34,0.93-3.24,0.93
	c-2.56,0-3.47-2.36-1.27-5.88c0,0-1.79,1.08-3.44,1.08c-0.71,0-1.39-0.2-1.88-0.77c-1.31-1.52-0.78-3.9,2.68-8.38
	c1.84-2.39,4.46-5.1,7.44-7.9c0.22-0.2,0.05-0.52-0.2-0.52c-0.04,0-0.09,0.01-0.14,0.03c-5.54,2.69-11.48,5.07-15.1,5.07
	c-0.32,0-0.62-0.02-0.89-0.06c-5.31-0.72-6.02-4.43-0.88-6.64c0,0-4.27-0.27-4.55-2.78c-0.22-1.99,1.58-3.64,6.98-5.36
	c2.6-0.83,5.87-1.5,9.46-2.06c-0.4,1.6-0.08,3.28,0.95,4.77c0.97,1.41,2.99,3.09,7.06,3.09c0.72,0,1.48-0.05,2.25-0.14
	c-1.67,3.2-2.56,6.49-1.78,9.05c0.71,2.31,2.63,3.83,5.12,4.06c0.2,0.02,0.39,0.03,0.59,0.03c0.21,0,0.42-0.03,0.63-0.05
	C167.17,374.26,163.52,379.62,160.54,381.15z M176.78,383.98c0,0-1.48,3.38-3.65,3.38c-0.17,0-0.34-0.02-0.52-0.06
	c-1.95-0.48-2.88-2.74-2.65-8.4c0.12-2.93,0.68-6.54,1.48-10.41c2.12-0.59,4.11-2.27,5.96-5.06c0.88,2.18,1.97,4.05,3.19,5.32
	c1.26,1.32,2.52,1.89,3.57,2.12c0.25,2.29,1.12,12.28-2.1,16.39c-0.37,0.41-0.74,0.73-1.11,0.95c0,0,0,0.01,0,0.01
	c-0.43,0.26-0.86,0.39-1.27,0.4c-0.07,0-0.14-0.01-0.21-0.02C178.07,388.49,176.94,386.94,176.78,383.98z M194.76,435.36
	c-0.4,2.02-0.86,4.22-1.34,6.58c-7.2,34.99-12.4,67.02,2.91,74.59c2.23,1.09,4.79,2.3,7.53,3.59c9.51,4.5,31.5,14.9,34.06,19.63
	c-1.63,3.37-16.27,14.49-65.05,6.5c-48.62-7.96-60.38-21.7-60.97-26.67c4.01-4.02,30.25-7.54,40.26-8.88
	c2.08-0.28,4.05-0.54,5.86-0.8c17.2-2.51,22.56-36.56,26.58-71.21c0.2-1.71,0.39-3.33,0.56-4.82c2.43-19.38,4.34-35.83,4.72-50.23
	c1.82,2.01,3.93,3.5,6.47,3.5c0.83,0,1.64-0.16,2.43-0.48c1.05-0.43,2.11-1.26,2.86-2.49c0.34,0.05,0.67,0.08,0.96,0.08
	c1.71,0,3.27-0.71,4.39-2C202.32,396.88,198.78,414.34,194.76,435.36z M307.22,501.66c-1.18-4.95-5.62-8.64-10.93-8.64
	c-4.81,0-8.91,3.03-10.52,7.28c-8.23-1.01-16.55-2.58-24.97-4.72c-31.44-7.99-54.85-21.89-63.38-27.44
	c0.27-1.71,0.55-3.41,0.84-5.09c8.74,1.49,30.57,4.66,57.63,4.66c5.78,0,11.8-0.14,17.98-0.48c22.7-1.24,43.21-4.91,61.26-10.86
	c13.33,3.71,25.65,5.87,36.94,6.52c1.75,3.3,5.21,5.54,9.2,5.54c4.14,0,7.71-2.43,9.39-5.93c5.17-0.58,10.07-1.55,14.69-2.93
	c0.68,3.32,1.32,6.7,1.88,10.04C376.15,491.09,342.66,501.79,307.22,501.66z M435.17,542.58c-48.4,9.18-64.15,0.3-66.41-4.17
	c2.39-5.15,25.84-17.45,34.79-22.14c1.86-0.98,3.61-1.89,5.22-2.75c15.3-8.25,8.67-42.07,0.57-76c-0.4-1.67-0.78-3.26-1.12-4.73
	c-5.19-22.67-9.65-41.18-15.48-56.36c7.6-5.74,15.1-14.3,18.74-18.69c-0.02,0.2-0.04,0.4-0.06,0.6c-7.55,17.66-7.54,43.9,1.95,43.55
	c1.17,8.91,2.68,18.53,4.38,29.01c0.31,2.03,0.64,4.26,0.99,6.64c5.22,35.34,11.31,67.22,28.29,69.08c2.48,0.26,5.3,0.52,8.32,0.8
	c10.48,0.97,34.68,3.2,38.71,6.77C493.68,517.91,483.72,533.38,435.17,542.58z"/>
</svg>
